<svg id="home_img" class="ipc-logo" xmlns="http://www.w3.org/2000/svg" width="64" height="32" viewBox="0 0 64 32" version="1.1"><g fill="#F5C518"><rect x="0" y="0" width="100%" height="100%" rx="4"></rect></g><g transform="translate(8.000000, 7.000000)" fill="#000000" fill-rule="nonzero"><polygon points="0 18 5 18 5 0 0 0"></polygon><path d="M15.6725178,0 L14.5534833,8.40846934 L13.8582008,3.83502426 C13.65661,2.37009263 13.4632474,1.09175121 13.278113,0 L7,0 L7,18 L11.2416347,18 L11.2580911,6.11380679 L13.0436094,18 L16.0633571,18 L17.7583653,5.8517865 L17.7707076,18 L22,18 L22,0 L15.6725178,0 Z"></path><path d="M24,18 L24,0 L31.8045586,0 C33.5693522,0 35,1.41994415 35,3.17660424 L35,14.8233958 C35,16.5777858 33.5716617,18 31.8045586,18 L24,18 Z M29.8322479,3.2395236 C29.6339219,3.13233348 29.2545158,3.08072342 28.7026524,3.08072342 L28.7026524,14.8914865 C29.4312846,14.8914865 29.8796736,14.7604764 30.0478195,14.4865461 C30.2159654,14.2165858 30.3021941,13.486105 30.3021941,12.2871637 L30.3021941,5.3078959 C30.3021941,4.49404499 30.272014,3.97397442 30.2159654,3.74371416 C30.1599168,3.5134539 30.0348852,3.34671372 29.8322479,3.2395236 Z"></path><path d="M44.4299079,13.4931418 L44.749518,13.4931418 C46.5447098,13.4931418 48,12.0873242 48,10.3551324 L48,3.1380094 C48,1.4049347 46.5451816,0 44.749518,0 L44.4299079,0 C43.3314617,0 42.3602746,0.5263382 41.7718697,1.3317261 L41.4838962,0.2312215 L37,0.2312215 L37,18 L41.7843263,18 L41.7843263,12.2194644 C42.4024982,12.9898426 43.3551514,13.4931418 44.4299079,13.4931418 Z M43.4055679,4.7157845 L43.4055679,8.9809219 C43.4055679,9.6856605 43.3603268,10.1481453 43.2660746,10.3610352 C43.1718224,10.5739250 42.7955881,10.7106084 42.5316822,10.7106084 C42.267776,10.7106084 41.8607934,10.5995262 41.7816216,10.4123300 L41.7816216,8.9809219 L41.7816216,4.5792149 L41.7816216,3.1925212 C41.8721037,2.9869724 42.2602358,2.8725941 42.5316822,2.8725941 C42.8031285,2.8725941 43.1982131,2.9833019 43.281155,3.1925212 C43.3640968,3.4017405 43.4055679,3.9119419 43.4055679,4.7157845 Z"></path></g></svg>